<svg xmlns="http://www.w3.org/2000/svg" viewBox="0 0 287.45 287.32"><g id="Capa_2" data-name="Capa 2"><g id="Capa_1-2" data-name="Capa 1"><path d="M287.25,262.44c-.13,3.49.71,8.24-.34,12.93-1.75,7.81-7.72,12.17-16.17,11.94-8-.22-14-5.05-14.89-12.93-.82-7.41-.68-14.93-1.28-22.37-3.71-45.68-19.22-87-46.74-123.6C171.57,80.24,123.67,49.82,64.74,37A214.45,214.45,0,0,0,20.25,32a48.72,48.72,0,0,1-7.45-.46C4.4,30.23-.46,23.66.08,14.6.57,6.31,6.42.42,14.76.08,19-.09,23.24,0,27.47.23c57.39,2.87,109.1,21.54,154.32,57,55.08,43.16,89,99.45,101.67,168.34A259.5,259.5,0,0,1,287.25,262.44Z"/><path d="M23.49,111.81c58.79,4.21,103.7,31,133,82.67,13.41,23.66,19,49.55,19.21,76.64.07,9.76-6.29,16.11-15.73,16.2-9.74.1-16.07-6.09-16.19-16.08-.41-34.22-12-64.22-35.39-89.08-17.47-18.58-39.57-29.82-64.46-35.45A143.92,143.92,0,0,0,15,143.6C6.83,143.43,1.1,138,.14,130c-1-8.31,3.31-15.51,10.61-17.58C14.91,111.28,19.16,111.79,23.49,111.81Z"/><path d="M63.81,255.27a31.88,31.88,0,1,1-31.89-31.71A31.81,31.81,0,0,1,63.81,255.27Z"/></g></g></svg>